# xmcd CD database file
#
# Track frame offsets:
#	150
#	15443
#	29825
#	44945
#	60683
#	75100
#	91149
#	103777
#	117830
#	131512
#	142691
#	155745
#	171729
#	189532
#	208061
#	224237
#	241301
#	250669
#	260942
#	276652
#	293553
#	303840
#	312209
#	324214
#	337313
#
# Disc length: 4628 seconds
#
# Revision: 0
# Processed by: cddbd v1.5.2PL0 Copyright (c) Steve Scherf et al.
# Submitted via: CDex 1.51
#
DISCID=81121219
DTITLE=Various Artist - SCHURINAME 10 - SUMMER EDITION
DYEAR=2007
DGENRE=REGGAETON
TTITLE0=BRAS CARNAVAL - KAWINA [DJ PRAKO RMX]
TTITLE1=RISHI RICH FEAT. JAY SEAN and JUGGY D - PUSH IT IP [AAJA KURIEH]
TTITLE2=DADDY YANKEE - LE QUE PASO PASO
TTITLE3=BASIC ONE - KAYENTA KAYENTA
TTITLE4=MAGIC SYSTEM - C CHO CA BRULE [DJ PRAKO RMX]
TTITLE5=BEENIE MAN - HUM HUM
TTITLE6=WISIN Y YANDEL - RAKATA [DEZE]
TTITLE7=BOB SINCLAIR FT J SISSOKO and JACOB DESVARIEUX - SYE BWA
TTITLE8=LACAZ - SUPERHEET [DJ PRAKO RMX]
TTITLE9=DJ TAMER FT DJ SOUNDKILLER - FEEL THE DRUMS
TTITLE10=FATMAN SCOOP - JUMP and SPREAD OUT [DJ PRAKO RMX]
TTITLE11=SEAN PAUL and RIHANNA - BREAK IT OFF
TTITLE12=GREGOR SALTO FT. DJ MADSKILLZ - WASMACHINE 2006
TTITLE13=TONO ROSSARIO - CULIKITAKA
TTITLE14=DADDY YANKEE FT.FATMAN SCOOP and NINA SKY - ROMPE
TTITLE15=RICKY MARTIN FT DADDY YANKEE - DROP IT ON ME
TTITLE16=DJ D-RASHID - LATIN BRUTALITY
TTITLE17=RISHI BASE - SHAKE YOUR BODY
TTITLE18=CUTTY RANKS MADAMADA
TTITLE19=SUPERIOR -  GENTLEMAN
TTITLE20=AL E AL KODURO - ZOUK KODURO [RMX]
TTITLE21=DJ D-RASHID - BUCKY GONE DONE
TTITLE22=WISIN Y YANDEL -  PAM PAM
TTITLE23=BRASA ARDIENT - YA LEGOO [DJ PRAKO RMX]
TTITLE24=SEAN PAUL VS UB40 and RAD HEAT - GET BUSY [DJ PRAKO RMX]
EXTD=YEAR: 2007
EXTT0=
EXTT1=
EXTT2=
EXTT3=
EXTT4=
EXTT5=
EXTT6=
EXTT7=
EXTT8=
EXTT9=
EXTT10=
EXTT11=
EXTT12=
EXTT13=
EXTT14=
EXTT15=
EXTT16=
EXTT17=
EXTT18=
EXTT19=
EXTT20=
EXTT21=
EXTT22=
EXTT23=
EXTT24=
PLAYORDER=
